<svg width="160" height="160" viewBox="0 0 160 160" fill="none" xmlns="http://www.w3.org/2000/svg">
<g id="exit-illustration" clip-path="url(#clip0_6126_23995)">
<path id="Vector" d="M127.231 159.692H14.9231V44.4615C14.9231 19.9453 34.8684 0 59.3846 0H82.7693C107.285 0 127.231 19.9453 127.231 44.4615V159.692Z" fill="#F2F2F2"/>
<path id="Vector_2" d="M103.846 159.692H14.9231V44.4616C14.8985 35.0675 17.8732 25.9109 23.414 18.3248C23.6183 18.0464 23.822 17.7717 24.0321 17.4999C26.7122 13.9848 29.9016 10.8892 33.495 8.31508C33.6979 8.16739 33.9017 8.02226 34.1085 7.87713C37.1154 5.79633 40.368 4.09532 43.7923 2.81282C43.9956 2.73575 44.2027 2.65852 44.4097 2.58445C47.5067 1.47924 50.717 0.72218 53.9815 0.327243C54.1839 0.299596 54.3917 0.277963 54.5994 0.256329C57.7807 -0.0838154 60.9891 -0.0838154 64.1704 0.256329C64.3775 0.277963 64.5853 0.299594 64.7901 0.327538C68.0537 0.722502 71.2633 1.47947 74.3594 2.58446C74.5665 2.65853 74.7736 2.73575 74.9775 2.81298C78.3596 4.07931 81.5739 5.75493 84.5487 7.80246C84.7554 7.94444 84.9623 8.08957 85.1661 8.2347C87.1803 9.67247 89.0722 11.2742 90.8226 13.0236C92.2262 14.4268 93.5342 15.9226 94.7377 17.5008C94.9472 17.7717 95.1509 18.0465 95.3548 18.3244C100.896 25.9105 103.871 35.0673 103.846 44.4616V159.692Z" fill="#CCCCCC"/>
<path id="Vector_3" d="M96.6153 108.154C99.3343 108.154 101.538 105.95 101.538 103.231C101.538 100.512 99.3343 98.3077 96.6153 98.3077C93.8964 98.3077 91.6923 100.512 91.6923 103.231C91.6923 105.95 93.8964 108.154 96.6153 108.154Z" fill="#5745A0"/>
<path id="Vector_4" d="M118.03 156.241H114.258L112.463 141.691L118.031 141.691L118.03 156.241Z" fill="#B1AADC"/>
<path id="Vector_5" d="M111.564 155.163H118.839V159.744H106.983C106.983 159.142 107.102 158.546 107.332 157.991C107.562 157.435 107.899 156.93 108.325 156.505C108.75 156.079 109.255 155.742 109.811 155.512C110.366 155.281 110.962 155.163 111.564 155.163Z" fill="#2F2E41"/>
<path id="Vector_6" d="M136.8 156.241H133.027L131.233 141.691L136.8 141.691L136.8 156.241Z" fill="#B1AADC"/>
<path id="Vector_7" d="M130.333 155.163H137.608V159.744H125.752C125.752 159.142 125.871 158.546 126.101 157.991C126.331 157.435 126.669 156.93 127.094 156.505C127.519 156.079 128.024 155.742 128.58 155.512C129.136 155.281 129.731 155.163 130.333 155.163Z" fill="#2F2E41"/>
<path id="Vector_8" d="M99.107 104.206C98.8356 103.806 98.6552 103.352 98.5784 102.875C98.5017 102.398 98.5305 101.909 98.6628 101.445C98.7951 100.98 99.0278 100.55 99.3443 100.185C99.6608 99.8195 100.054 99.5282 100.495 99.3312L113.318 63.9877L119.628 67.4312L104.987 101.207C105.268 101.97 105.26 102.81 104.964 103.568C104.668 104.326 104.104 104.948 103.379 105.318C102.654 105.688 101.819 105.779 101.032 105.574C100.244 105.369 99.5595 104.882 99.107 104.206Z" fill="#B1AADC"/>
<path id="Vector_9" d="M134.873 110.847C134.453 110.607 134.092 110.278 133.814 109.882C133.536 109.487 133.348 109.036 133.263 108.56C133.178 108.084 133.198 107.596 133.323 107.129C133.447 106.662 133.672 106.228 133.983 105.858L130.01 68.47L137.191 68.7981L138.842 105.574C139.43 106.136 139.791 106.895 139.857 107.706C139.923 108.516 139.689 109.323 139.2 109.973C138.71 110.623 138 111.071 137.202 111.233C136.405 111.394 135.576 111.256 134.873 110.847Z" fill="#B1AADC"/>
<path id="Vector_10" d="M123.417 57.4411C127.591 57.4411 130.974 54.0576 130.974 49.8838C130.974 45.7101 127.591 42.3266 123.417 42.3266C119.243 42.3266 115.86 45.7101 115.86 49.8838C115.86 54.0576 119.243 57.4411 123.417 57.4411Z" fill="#B1AADC"/>
<path id="Vector_11" d="M134.824 102.344H112.041L112.068 102.167C112.109 101.902 116.129 75.5703 113.164 66.9558C112.867 66.1093 112.893 65.1826 113.238 64.3542C113.582 63.5257 114.221 62.8541 115.032 62.4686C119.269 60.4731 127.403 58.0159 134.269 63.9791C135.279 64.871 136.068 65.9858 136.573 67.2352C137.078 68.4846 137.286 69.8344 137.179 71.1779L134.824 102.344Z" fill="#EF5E4E"/>
<path id="Vector_12" d="M116.417 79.4617L106.159 77.3807L110.967 65.9869C111.255 64.8833 111.969 63.939 112.952 63.3609C113.935 62.7829 115.107 62.6183 116.211 62.9034C117.316 63.1885 118.262 63.8999 118.842 64.8816C119.423 65.8632 119.59 67.0351 119.308 68.14L116.417 79.4617Z" fill="#EF5E4E"/>
<path id="Vector_13" d="M129.554 83.3256L128.937 69.1898C128.47 66.5325 129.991 64.0204 132.33 63.6098C134.67 63.2007 136.955 65.0437 137.425 67.7206L139.743 80.9291L129.554 83.3256Z" fill="#EF5E4E"/>
<path id="Vector_14" d="M134.066 100.652C137.732 114.614 138.132 132.366 137.143 151.729L132.22 151.113L123.297 114.19L118.374 151.729L112.836 151.421C111.181 131.104 109.57 113.663 112.22 102.19L134.066 100.652Z" fill="#2F2E41"/>
<path id="Vector_15" d="M128.397 55.7243C126.987 57.2261 124.369 56.4199 124.185 54.3683C124.17 54.209 124.171 54.0487 124.188 53.8896C124.283 52.9808 124.808 52.1557 124.682 51.1962C124.654 50.9573 124.565 50.7298 124.424 50.535C123.3 49.0306 120.663 51.2078 119.603 49.846C118.952 49.0109 119.717 47.6961 119.218 46.7627C118.559 45.5308 116.609 46.1385 115.386 45.4639C114.025 44.7133 114.106 42.6254 115.002 41.3554C116.095 39.8066 118.01 38.9801 119.902 38.861C121.793 38.7419 123.672 39.2533 125.438 39.9415C127.444 40.7234 129.434 41.8041 130.669 43.5684C132.17 45.714 132.315 48.5985 131.564 51.1074C131.107 52.6336 129.548 54.4979 128.397 55.7243Z" fill="#2F2E41"/>
<path id="Vector_16" d="M339.166 159.89H-179.166C-179.388 159.89 -179.6 159.851 -179.756 159.783C-179.912 159.714 -180 159.621 -180 159.524C-180 159.427 -179.912 159.334 -179.756 159.265C-179.6 159.196 -179.388 159.158 -179.166 159.157H339.166C339.388 159.158 339.6 159.196 339.756 159.265C339.912 159.334 340 159.427 340 159.524C340 159.621 339.912 159.714 339.756 159.783C339.6 159.851 339.388 159.89 339.166 159.89Z" fill="#3F3D56"/>
<path id="Vector_17" d="M79.3846 126.308H39.3846C38.8578 126.311 38.3514 126.104 37.9764 125.734C37.6015 125.364 37.3887 124.861 37.3846 124.334V35.0509C37.3887 34.5241 37.6015 34.0204 37.9764 33.6504C38.3514 33.2803 38.8578 33.0741 39.3846 33.0769H79.3846C79.9114 33.0741 80.4178 33.2803 80.7927 33.6504C81.1677 34.0204 81.3805 34.5241 81.3846 35.0509V124.334C81.3805 124.861 81.1677 125.364 80.7927 125.734C80.4178 126.104 79.9114 126.311 79.3846 126.308Z" fill="white"/>
<path id="Vector_18" d="M81.3846 61.9661H37.3846V62.5814H81.3846V61.9661Z" fill="#CCCCCC"/>
<path id="Vector_19" d="M81.5385 97.0769H37.5385V97.6923H81.5385V97.0769Z" fill="#CCCCCC"/>
<path id="Vector_20" d="M51.8462 33.0769H51.2308V126.615H51.8462V33.0769Z" fill="#CCCCCC"/>
<path id="Vector_21" d="M67.2307 33.0769H66.6154V126.615H67.2307V33.0769Z" fill="#CCCCCC"/>
</g>
<defs>
<clipPath id="clip0_6126_23995">
<rect width="160" height="160" fill="white"/>
</clipPath>
</defs>
</svg>
