<svg width="43" height="43" viewBox="0 0 43 43" fill="none" xmlns="http://www.w3.org/2000/svg">
<rect width="42.2182" height="43" rx="10" fill="#EF5E4E"/>
<path fill-rule="evenodd" clip-rule="evenodd" d="M28.8861 17.2969C28.8861 18.0086 28.7995 18.6975 28.6425 19.3579C28.4638 20.0867 28.1931 20.7813 27.8466 21.419C27.5056 22.0453 27.0887 22.6203 26.6069 23.1271C25.1992 24.6188 23.2183 25.6491 21.0744 25.6491H21.0337C21.0337 25.615 21.0337 25.5808 21.0337 25.541C20.9579 23.1895 20.0777 20.9692 18.5835 19.4547C17.2084 18.0598 15.3568 17.1678 13.332 17.0653C13.3862 14.879 14.2578 12.9129 15.6167 11.4667C17.0135 9.97499 18.957 9.05264 21.1064 9.05264C25.3996 9.05264 28.8861 12.7421 28.8861 17.2969ZM13.332 33.9474C17.6673 33.9474 21.1091 30.2054 21.1091 25.6491H13.332V33.9474Z" fill="white"/>
</svg>
